<?xml version="1.0" encoding="utf-8"?>
<!-- Generator: Adobe Illustrator 21.0.0, SVG Export Plug-In . SVG Version: 6.00 Build 0)  -->
<svg version="1.1" xmlns="http://www.w3.org/2000/svg" xmlns:xlink="http://www.w3.org/1999/xlink" x="0px" y="0px"
	 viewBox="0 0 178 44.599998" style="enable-background:new 0 0 178 44.599998;" xml:space="preserve">
<style type="text/css">
	.st0{fill:#FFFFFF;}
	.st123{fill:url(#SVGID_2_);}
</style>
<g>
	<path class="st0" d="M162.289856,26.26054h7.657043l-3.828506-8.845201L162.289856,26.26054z M173.643387,34.577671
		l-2.244308-5.148701h-10.429398l-2.244308,5.148701h-4.224564l11.617584-24.81937h0.264023L178,34.577671H173.643387z
		 M155.688965,10.022337v3.564483h-6.600906v20.990849h-4.09256V13.58682h-6.600891v-3.564483H155.688965z M124.796753,31.013186
		c1.320183,0,2.508347-0.264038,3.564484-0.924128l-4.752647-6.20484h4.488609l2.904388,3.828518
		c1.056152-1.452196,1.584213-3.300447,1.584213-5.412735c0-5.280716-3.564468-8.713182-7.789055-8.713182
		c-4.092552,0-7.921074,3.432467-7.921074,8.713182S120.704201,31.013186,124.796753,31.013186z M136.810394,22.300001
		c0,3.432467-1.320175,6.468878-3.300446,8.581165l2.772385,3.696501h-4.488617l-1.056152-1.452198
		c-1.848251,1.056141-3.960541,1.716232-5.940811,1.716232c-5.940804,0-12.145645-5.148699-12.145645-12.541702
		s6.204842-12.541702,12.145645-12.541702C130.869583,9.758301,136.810394,14.907001,136.810394,22.300001z M96.54493,26.26054
		h7.657043l-3.828522-8.845201L96.54493,26.26054z M107.766449,34.577671l-2.244301-5.148701H95.092735l-2.244301,5.148701
		h-4.224571l11.485558-24.81937h0.26403l11.617577,24.81937H107.766449z M74.365913,31.145203h11.881615v3.432468H70.40538
		V10.022337h15.446091v3.432466H74.365913v7.128968h8.053093v3.432465h-8.053093V31.145203z M52.318928,13.58682v8.97722h4.224567
		c3.036419,0,4.884659-1.584217,4.884659-4.488609c0-3.036411-1.848251-4.488608-4.884659-4.488608
		C56.543495,13.586822,52.318928,13.586822,52.318928,13.58682z M66.972916,34.577671h-4.356598l-5.808788-8.713184h-4.488613
		v8.713184h-3.960537V10.022337h8.317131c5.412735,0,8.581165,3.300447,8.581165,7.921074
		c0,3.432467-1.716236,6.072824-4.752644,7.260986L66.972916,34.577671z"/>

		<linearGradient id="SVGID_2_" gradientUnits="userSpaceOnUse" x1="19.034679" y1="-3637.372559" x2="19.034679" y2="-3601.088135" gradientTransform="matrix(1 0 0 1 0 3641.609863)">
		<stop  offset="0" style="stop-color:#2AF598"/>
		<stop  offset="1" style="stop-color:#009EFD"/>
	</linearGradient>

  <g class="logo">
    <path class="st123" d="M35.477402,24.729958c0.080997-0.809986,0.161999-1.619972,0.161999-2.429958
      c0-9.962831-7.937866-18.062695-17.8197-18.062695C8.018865,4.237304,0,12.337168,0,22.299999
      s8.018865,18.062695,17.8197,18.062695c5.426908,0,10.205826-2.429958,13.526772-6.236897l6.722887-6.803883L35.477402,24.729958z
       M27.296541,22.299999c0,5.426908-4.292927,9.800838-9.638838,9.800838s-9.638837-4.373928-9.638837-9.800837
      s4.292928-9.800836,9.638837-9.800836C23.003613,12.499165,27.296541,16.873091,27.296541,22.299999z"/>
  </g>
</g>
</svg>
